<?xml version="1.0" encoding="UTF-8" standalone="no"?>
<!-- Created with Inkscape (http://www.inkscape.org/) -->

<svg
   width="1392"
   height="512"
   viewBox="0 0 1392 512"
   version="1.1"
   id="svg1"
   xml:space="preserve"
   xmlns:xlink="http://www.w3.org/1999/xlink"
   xmlns="http://www.w3.org/2000/svg"
   xmlns:svg="http://www.w3.org/2000/svg"><defs
     id="defs1"><linearGradient
       id="linearGradient21"><stop
         style="stop-color:#4d4d4d;stop-opacity:1;"
         offset="0"
         id="stop20" /><stop
         style="stop-color:#4d4d4d;stop-opacity:1;"
         offset="1"
         id="stop21" /></linearGradient><linearGradient
       id="linearGradient17"><stop
         style="stop-color:#4d4d4d;stop-opacity:1;"
         offset="0"
         id="stop18" /><stop
         style="stop-color:#8c8c8c;stop-opacity:1;"
         offset="1"
         id="stop19" /></linearGradient><linearGradient
       id="swatch17"><stop
         style="stop-color:#01243c;stop-opacity:1;"
         offset="0"
         id="stop17" /></linearGradient><linearGradient
       xlink:href="#linearGradient17"
       id="linearGradient19"
       x1="267.53467"
       y1="265.5264"
       x2="173.39011"
       y2="173.60254"
       gradientUnits="userSpaceOnUse" /><linearGradient
       xlink:href="#linearGradient17"
       id="linearGradient52"
       gradientUnits="userSpaceOnUse"
       x1="267.53467"
       y1="265.5264"
       x2="173.39011"
       y2="173.60254" /><linearGradient
       xlink:href="#linearGradient17"
       id="linearGradient53"
       gradientUnits="userSpaceOnUse"
       x1="267.53467"
       y1="265.5264"
       x2="173.39011"
       y2="173.60254" /><linearGradient
       xlink:href="#linearGradient17"
       id="linearGradient54"
       gradientUnits="userSpaceOnUse"
       x1="267.53467"
       y1="265.5264"
       x2="173.39011"
       y2="173.60254" /><linearGradient
       xlink:href="#linearGradient21"
       id="linearGradient55"
       gradientUnits="userSpaceOnUse"
       x1="267.53467"
       y1="265.5264"
       x2="173.39011"
       y2="173.60254" /></defs><g
     id="g72"
     transform="translate(-6.0227279e-7,2)"
     style="display:inline"><g
       id="layer1"
       style="display:inline;opacity:1"
       transform="translate(0,-2)"><g
         id="g18"
         style="stroke:url(#linearGradient19)"
         transform="matrix(1.0896671,0,0,1.0896671,-33.952882,-14.016693)"><path
           id="path16"
           style="display:inline;opacity:1;fill:#ffffff;stroke:url(#linearGradient52);stroke-width:13;stroke-linejoin:round;stroke-miterlimit:4.1;stroke-opacity:1"
           d="m 157.69488,137.8087 h 157.57594 a 25.44729,25.44729 45 0 1 25.44729,25.44729 v 217.072 a 25.44729,25.44729 135 0 1 -25.44729,25.44729 H 157.69488 a 25.44729,25.44729 45 0 1 -25.44729,-25.44729 v -217.072 a 25.44729,25.44729 135 0 1 25.44729,-25.44729 z"
           transform="matrix(0.906308,0.422618,-0.906308,0.422618,299.13238,116.84603)" /><path
           id="path14"
           style="display:inline;opacity:1;fill:#ffffff;stroke:url(#linearGradient53);stroke-width:13;stroke-linejoin:round;stroke-miterlimit:4.1;stroke-opacity:1"
           d="m 157.69488,137.8087 h 157.57594 a 25.44729,25.44729 45 0 1 25.44729,25.44729 v 217.072 a 25.44729,25.44729 135 0 1 -25.44729,25.44729 H 157.69488 a 25.44729,25.44729 45 0 1 -25.44729,-25.44729 v -217.072 a 25.44729,25.44729 135 0 1 25.44729,-25.44729 z"
           transform="matrix(0.906308,0.422618,-0.906308,0.422618,299.13238,96.144959)" /><path
           id="path13"
           style="display:inline;opacity:1;fill:#ffffff;stroke:url(#linearGradient54);stroke-width:13;stroke-linejoin:round;stroke-miterlimit:4.1;stroke-opacity:1"
           d="m 157.69488,137.8087 h 157.57594 a 25.44729,25.44729 45 0 1 25.44729,25.44729 v 217.072 a 25.44729,25.44729 135 0 1 -25.44729,25.44729 H 157.69488 a 25.44729,25.44729 45 0 1 -25.44729,-25.44729 v -217.072 a 25.44729,25.44729 135 0 1 25.44729,-25.44729 z"
           transform="matrix(0.906308,0.422618,-0.906308,0.422618,299.13238,73.603796)" /><path
           id="rect8"
           style="display:inline;opacity:1;fill:#ffffff;stroke:url(#linearGradient55);stroke-width:13;stroke-linejoin:round;stroke-miterlimit:4.1;stroke-opacity:1"
           d="m 157.69488,137.8087 h 157.57594 a 25.44729,25.44729 45 0 1 25.44729,25.44729 v 217.072 a 25.44729,25.44729 135 0 1 -25.44729,25.44729 H 157.69488 a 25.44729,25.44729 45 0 1 -25.44729,-25.44729 v -217.072 a 25.44729,25.44729 135 0 1 25.44729,-25.44729 z"
           transform="matrix(0.906308,0.422618,-0.906308,0.422618,299.13238,51.062633)" /></g><g
         id="g30"
         style="display:inline;opacity:1;fill:#4d4d4d;fill-opacity:1;stroke:#4d4d4d;stroke-width:6.80709;stroke-dasharray:none;stroke-opacity:1"
         transform="matrix(0.5759966,0.2685914,-0.5759966,0.2685914,287.71036,146.40429)"><path
           d="m 299.01202,84.191185 q 3.12624,4.631485 10.88396,4.631485 8.79979,1.157855 8.79979,4.863028 v 0.926301 q -1.27366,2.315732 -4.3999,2.315732 -2.54731,0 -17.368,7.178769 -0.92629,-0.81051 -0.92629,-1.85258 7.17877,-4.515681 10.65237,-7.873496 v -0.463151 q -6.25248,-1.736799 -8.33664,-5.326189 -1.15787,-2.084167 -1.15787,-3.242023 1.04208,-1.157876 1.85258,-1.157876 z m 30.56769,5.557775 h 0.23157 q 10.65238,3.357816 10.65238,9.957643 0,4.052547 -14.58912,22.694207 2.5473,7.17876 2.5473,14.35755 0,24.08362 -7.64192,34.50442 -3.4736,3.47361 -6.48405,3.47361 -2.43152,0 -7.87349,-7.8735 -7.17878,-6.25248 -7.17878,-6.48406 1.04208,-2.31573 1.38944,-2.31573 11.92603,8.10507 13.66283,8.10507 h 0.23157 q 5.21041,-0.9263 6.94721,-23.15735 0,-0.81049 0.23156,-5.78931 -0.23156,-5.09464 -0.69471,-8.33667 h -0.46314 q -19.79954,21.99949 -30.5677,30.10455 -17.48378,13.66282 -19.45215,13.66282 -1.62102,-2.31573 -1.62102,-2.77888 10.30501,-6.0209 33.34657,-28.71509 10.18923,-11.11552 16.21013,-18.98901 v -0.69472 q -2.54731,-4.3999 -7.41035,-4.3999 h -0.23157 q -7.8735,0 -23.62048,8.79979 -0.9263,0.46316 -2.54731,0.46316 h -0.23157 q -5.32619,0 -5.32619,-5.55776 0,-5.78934 3.93675,-9.26295 h 0.23157 q 1.27365,0.92629 1.85258,0.92629 -1.15786,3.12625 -1.15786,3.93676 v 0.92629 q 0,1.85258 1.85259,1.85258 h 0.46314 q 1.15786,0 15.97857,-4.86303 4.86304,-0.9263 10.18923,-1.38945 4.97882,0 9.4945,3.93675 h 0.46315 q 10.65238,-13.66283 10.65238,-19.452169 0,-3.357805 -4.63148,-5.326179 v -0.46315 q 1.15787,-1.505224 1.15787,-1.852582 z"
           style="font-style:normal;font-variant:normal;font-weight:normal;font-stretch:normal;font-size:105.833px;line-height:100%;font-family:'BabelStone Han';-inkscape-font-specification:'BabelStone Han';text-align:center;letter-spacing:0px;word-spacing:0px;text-anchor:middle;fill:#4d4d4d;fill-opacity:1;stroke:#4d4d4d;stroke-width:6.80709;stroke-linecap:butt;stroke-linejoin:miter;stroke-dasharray:none;stroke-opacity:1"
           id="path29" /><path
           d="m 214.88771,84.191185 q 8.5019,2.33802 8.5019,5.73878 0,1.38155 -4.25095,7.86426 v 0.21254 q 5.95133,2.550585 5.95133,7.226625 0,4.35722 -7.86426,12.75284 v 0.63764 q 3.50703,1.06274 5.10114,4.0384 0.74392,2.97566 1.06274,2.97566 3.08193,-0.63764 7.22661,-1.06273 10.096,0 14.87832,9.35208 1.06273,4.25095 1.06273,6.16388 0,11.90265 -11.90265,16.15361 -4.4635,0.63763 -5.73878,0.63763 -3.08194,0 -6.58897,-2.12547 h -0.42509 v 0.21255 q -1.48784,11.37129 -5.73879,18.49163 -0.85018,1.27528 -1.06273,1.27528 -1.48784,0 -1.70038,-1.06274 4.67604,-14.66577 4.67604,-42.72203 h -0.21254 q -6.58898,1.38156 -21.25475,12.96539 -3.18821,4.56977 -4.88859,4.88859 -2.86939,0 -3.40076,-6.37641 0,-1.27529 7.43916,-7.01407 22.74258,-22.31748 22.74258,-28.90645 v -1.48784 q 0,-1.38155 -1.91293,-2.55056 -0.4251,0 -4.25095,4.88859 -10.5211,10.20227 -18.06653,10.20227 h -0.42509 q -6.58897,-0.63764 -6.58897,-5.73878 v -0.42509 q 0,-7.75798 14.66577,-12.965405 5.41996,-1.48782 9.77718,-1.48782 h 1.06274 q 2.0192,0 4.25094,-7.43917 0,-1.5941 -3.6133,-3.6133 0.85019,-1.70038 1.48783,-1.70038 z m -24.44295,27.206075 q 0,2.97567 2.76312,2.97567 h 0.85018 q 6.27015,0 16.15361,-11.47757 0,-0.31882 0.63764,-1.06273 v -0.42509 q 0,-0.4251 -0.63764,-0.4251 -13.07167,0 -19.34182,7.86425 -0.42509,1.48783 -0.42509,2.55057 z m 6.37642,26.35587 h 0.4251 q 17.32261,-9.98972 19.55436,-9.98972 1.06274,-0.53137 1.06274,-1.06274 -0.63765,-6.16387 -2.55057,-6.16387 -18.49163,16.79124 -18.49163,17.21633 z m 26.56843,-8.28934 v 7.86425 q 0,4.99486 -0.63765,14.02813 1.80666,1.70038 5.95133,1.70038 7.43916,0 10.62737,-7.6517 0.85019,-2.4443 0.85019,-5.52623 0,-8.82073 -6.37642,-11.47757 -1.48783,-0.42509 -2.55057,-0.42509 h -1.70038 q -5.20741,0.31882 -6.16387,1.48783 z"
           style="font-style:normal;font-variant:normal;font-weight:normal;font-stretch:normal;font-size:105.833px;line-height:100%;font-family:'BabelStone Han';-inkscape-font-specification:'BabelStone Han';text-align:center;letter-spacing:0px;word-spacing:0px;text-anchor:middle;display:inline;opacity:1;fill:#4d4d4d;fill-opacity:1;stroke:#4d4d4d;stroke-width:6.80709;stroke-linecap:butt;stroke-linejoin:miter;stroke-dasharray:none;stroke-opacity:1"
           id="path28" /><path
           d="m 105.17501,84.191185 q 5.90368,5.787935 13.891,5.787935 3.24124,1.620616 3.24124,4.167289 0,2.546686 -4.39882,2.778213 h -0.23151 q -8.45038,0 -13.891,-11.112806 v -0.463035 z m -9.029146,22.688665 q 0,2.66243 8.566106,3.47273 h 0.69455 l 2.08365,-0.2315 q 4.1673,0 7.40854,4.63032 l 0.23152,0.92605 q 0,2.54669 -5.5564,4.86187 -10.765531,10.30251 -22.688645,19.44739 l -0.231509,0.46305 h 0.231509 q 5.093376,-0.34727 21.299555,-6.9455 3.70426,-2.08366 9.26066,-6.01945 5.5564,1.27334 5.5564,5.09337 0,0.34728 -6.71398,6.48248 -10.18674,12.03886 -10.18674,24.07774 v 0.23151 q 0,5.55639 16.43769,5.55639 h 3.0097 q 17.13226,-1.15757 17.13226,-8.33459 v -2.08366 q 0,-3.35699 -5.78792,-26.39291 -0.23153,-2.1994 -0.46304,-2.54667 0.92607,-0.69455 2.77819,-0.69455 2.66246,10.88127 9.95523,28.47656 0.69455,2.89396 0.69455,3.93577 0,9.37645 -15.74315,12.50192 -5.44062,0.92606 -9.02915,0.92606 h -2.08364 q -17.13225,0 -20.83651,-5.5564 -1.85212,-2.43092 -1.85212,-5.32489 v -0.92606 q 0,-8.68186 12.73341,-27.78201 v -0.23151 h -0.23153 q -23.614687,13.42797 -26.85592,13.42797 -3.588521,0 -6.482481,-6.25096 v -0.23151 q 0.69456,-1.50486 7.871573,-5.78793 15.743148,-14.12251 17.363748,-19.21589 h -0.23151 q -8.334596,0 -10.418248,-8.33458 0,-0.92607 2.083652,-1.62061 z m 55.795526,0.92605 q 7.87158,0 12.50191,8.56611 0.46304,1.96789 0.46304,2.54671 0,6.25093 -11.57584,8.56609 l -1.15758,0.23152 q -1.04184,-0.46302 -1.85214,-1.62061 v -0.69456 q 6.9455,-1.73636 6.9455,-6.01943 v -0.92605 q -1.62062,-6.71399 -6.48247,-6.71399 h -1.38911 q -2.66244,0 -5.09336,1.62062 h -0.23152 q -1.15758,-0.57878 -1.15758,-1.85214 4.63034,-3.70426 9.02915,-3.70427 z"
           style="font-style:normal;font-variant:normal;font-weight:normal;font-stretch:normal;font-size:105.833px;line-height:100%;font-family:'BabelStone Han';-inkscape-font-specification:'BabelStone Han';text-align:center;letter-spacing:0px;word-spacing:0px;text-anchor:middle;fill:#4d4d4d;fill-opacity:1;stroke:#4d4d4d;stroke-width:6.80709;stroke-linecap:butt;stroke-linejoin:miter;stroke-dasharray:none;stroke-opacity:1"
           id="path30" /></g></g><g
       id="g47"
       style="display:inline"><g
         id="layer6"
         style="display:inline"><g
           id="g19"
           transform="matrix(1.0896671,0,0,1.0896671,-25.373869,-5.3083098)"
           style="stroke:#bab4bd;stroke-opacity:1"><path
             style="fill:#a2b9c9;fill-opacity:1;stroke:#bab4bd;stroke-width:9.5;stroke-linecap:round;stroke-linejoin:round;stroke-miterlimit:4.1;stroke-dasharray:none;stroke-opacity:1"
             d="m 137.9375,285.27383 c -8.72917,0 -17.45834,0 -26.1875,0"
             id="path19" /></g><g
           id="g36"
           style="display:inline;opacity:1;fill:#ffffff;stroke:#4d4d4d;stroke-opacity:1"
           transform="matrix(1.0896671,0,0,1.0896671,-29.732538,-5.3083098)"><path
             id="path20"
             style="display:inline;fill:#ffffff;stroke:#4d4d4d;stroke-width:9.5;stroke-linecap:round;stroke-linejoin:round;stroke-miterlimit:4.1;stroke-dasharray:none;stroke-opacity:1"
             d="m 173.89016,275.09706 c -2.94833,-5.27292 -10.29228,-9.19958 -19.77102,-9.19958 -14.31653,0 -22.48886,8.68507 -21.03966,16.10114 m 30.84809,3.27521 h -37.20253 v 0 h 37.20253" /><path
             id="path33"
             style="display:inline;fill:#ffffff;stroke:#4d4d4d;stroke-width:9.5;stroke-linecap:round;stroke-linejoin:round;stroke-miterlimit:4.1;stroke-dasharray:none;stroke-opacity:1"
             d="m 199.06961,266.35325 c 1.36637,-10.02769 -7.62592,-19.34177 -20.78152,-19.34177 -12.25066,0 -19.94651,7.83094 -20.85432,15.71742 m 11.96857,7.56068 h 35.94374 z" /><path
             id="path35"
             style="display:inline;fill:#ffffff;stroke:#4d4d4d;stroke-width:9.5;stroke-linecap:round;stroke-linejoin:round;stroke-miterlimit:4.1;stroke-dasharray:none;stroke-opacity:1"
             d="m 257.27189,272.64206 c 1.00241,-9.83298 -7.90745,-18.83629 -20.84172,-18.83629 -14.14089,0 -22.21295,10.43394 -20.78152,19.34338" /></g></g><g
         id="layer4"
         style="display:inline;opacity:1"><g
           id="g51"
           transform="matrix(1.5265756,0,0,1.5265756,-285.36901,-32.582292)"
           style="display:none"><path
             style="display:inline;opacity:1;fill:none;fill-opacity:1;stroke:#bab4bd;stroke-width:7;stroke-linecap:round;stroke-linejoin:round;stroke-miterlimit:4.1;stroke-dasharray:none;stroke-opacity:1"
             d="m 267.13142,51.749999 c 12.01419,-1.5 24.02838,-3 36.04257,-4.5"
             id="path49"
             transform="translate(0.6834749,13.860987)" /><path
             style="display:inline;fill:#737373;fill-opacity:1;stroke:none;stroke-width:3;stroke-linecap:round;stroke-linejoin:round;stroke-miterlimit:4.1;stroke-dasharray:none;stroke-opacity:1"
             d="m 204.66677,101.41676 c -3.16443,1.6538 15.63493,-23.928019 27.40103,-37.713789 4.86928,-5.705105 12.10036,-9.094605 14.23424,-10.138391 2.13389,-1.043791 8.84538,-3.000941 13.09586,-4.096227 4.25047,-1.095285 8.41493,-1.703706 11.20474,-2.300038 5.57961,-1.192661 10.99933,-1.220192 15.69574,-1.065687 4.69642,0.15451 8.29427,0.991098 11.15916,1.93429 2.86488,0.943203 5.21762,1.678287 6.90663,2.647211 1.689,0.968933 2.71415,1.452896 3.60748,2.286701 0.89344,0.833725 1.4339,1.613306 1.71377,2.35397 0.27977,0.740711 0.29885,1.442542 -0.0212,1.982597 -0.32002,0.540055 -0.9791,0.918309 -2.57501,1.077774 -1.59592,0.159473 -4.12853,0.193891 -6.69525,0.199841 -2.56671,0.0059 -5.16738,0.07714 -8.60891,0.513272 -3.44153,0.436138 -7.72369,1.237191 -11.44191,2.034383 -3.71825,0.797161 -12.87239,1.590422 -16.21626,2.570304 -3.34389,0.979872 -6.87731,2.146348 -9.8798,3.150581 -3.00243,1.004251 -23.9431,11.177388 -26.41443,12.019379 z"
             id="path23-6" /></g><path
           style="fill:none;stroke:#4d4d4d;stroke-width:10.6932;stroke-linecap:round;stroke-linejoin:round;stroke-miterlimit:4.1;stroke-dasharray:none;stroke-opacity:1"
           d="m 210,279.75 c -0.25,-17.25 -0.49999,-34.49965 -5.08342,-54.62506 -4.58343,-20.1254 -13.49974,-43.12448 -15.16644,-65.04159 -1.6667,-21.9171 3.91642,-42.74961 14.91663,-58.66659 11.00022,-15.916977 27.41624,-26.916544 41.63527,-31.874975 14.21903,-4.958431 26.23938,-3.875142 35.18748,-2.270942 8.9481,1.604199 14.82286,3.729112 18.58335,6.552089 3.7605,2.822976 5.4063,6.343737 7.05213,9.864567"
           id="path1"
           transform="matrix(1.0896671,0,0,1.0896671,-29.732538,-5.3083098)" /><g
           id="g1"
           transform="matrix(1.2568697,0,0,1.2568697,-59.637323,-62.125923)"><path
             style="display:inline;opacity:1;fill:#d1dbe4;fill-opacity:1;stroke:#4d4d4d;stroke-width:17.1327;stroke-linecap:round;stroke-linejoin:round;stroke-miterlimit:4.1;stroke-dasharray:none;stroke-opacity:1"
             d="m -194.27758,967.14528 c -0.2357,-7.04161 -0.47141,-14.08321 -2.35706,-22.4802 -1.88565,-8.39699 -5.42112,-18.14898 -10.22361,-27.51824 -4.8025,-9.36925 -10.87171,-18.35522 -16.67593,-25.02858 -5.80422,-6.67337 -11.34312,-11.03377 -16.17505,-14.21577 -4.83194,-3.182 -8.95665,-5.18543 -12.43328,-6.62912 -3.47664,-1.44368 -6.30501,-2.32755 -8.63259,-2.75475 -2.32758,-0.42721 -4.15423,-0.39775 -5.61265,-0.0295 -1.45842,0.36829 -2.54852,1.07538 -2.99046,2.10659 -0.44195,1.03121 -0.23571,2.38648 1.41424,4.87612 1.64995,2.48964 4.74348,6.11349 7.77817,9.8553 3.0347,3.74181 6.01038,7.60136 9.4281,13.06677 3.41772,5.46542 7.27727,12.53635 10.47401,18.78251 3.19674,6.24617 5.73048,11.66721 8.20538,17.55983 2.4749,5.89262 4.8908,12.25645 6.92375,17.67765 2.03295,5.4212 3.68283,9.89945 5.33274,14.37779 z"
             id="path17"
             transform="matrix(0.5463531,-0.14921477,0.15730516,0.51979609,147.86866,-254.1638)" /><path
             style="display:inline;opacity:1;fill:#d1dbe4;fill-opacity:1;stroke:#4d4d4d;stroke-width:9.5;stroke-linecap:round;stroke-linejoin:round;stroke-miterlimit:4.1;stroke-dasharray:none;stroke-opacity:1"
             d="m 207.43322,282.53995 c 0.99212,-3.80028 1.98426,-7.60057 3.97137,-11.91603 1.9871,-4.31548 4.96905,-9.14592 8.53835,-13.59728 3.56932,-4.45136 7.72576,-8.52334 11.46236,-11.37254 3.73661,-2.8492 7.05321,-4.47543 9.86927,-5.5557 2.81607,-1.08026 5.13148,-1.61447 7.0527,-1.93145 1.92122,-0.31697 3.44811,-0.41668 4.6674,-0.33536 1.21931,0.0812 2.13091,0.34358 2.81598,0.74055 0.68503,0.39706 1.14349,0.9288 1.23692,1.54957 0.0934,0.62077 -0.17811,1.33049 -1.31387,2.46293 -1.13575,1.13245 -3.13562,2.68752 -5.12063,4.31472 -1.98502,1.62719 -3.95509,3.32642 -6.34599,5.83997 -2.39089,2.51355 -5.20244,5.84127 -7.57949,8.8095 -2.37708,2.96822 -4.31954,5.57681 -6.29103,8.44994 -1.97151,2.87313 -3.97192,6.01067 -5.66349,8.68685 -1.69152,2.67616 -3.07408,4.89083 -4.45666,7.10552 z"
             id="path23" /><path
             style="display:none;fill:#bab4bd;fill-opacity:1;stroke:none;stroke-width:1;stroke-linecap:round;stroke-linejoin:round;stroke-miterlimit:4.1;stroke-dasharray:none"
             d="m -194.27758,967.14528 c -0.2357,-7.04161 -0.47141,-14.08321 -2.35706,-22.4802 -1.88565,-8.39699 -5.42112,-18.14898 -10.22361,-27.51824 -4.8025,-9.36925 -10.87171,-18.35522 -16.67593,-25.02858 -5.80422,-6.67337 -11.34312,-11.03377 -16.17505,-14.21577 -4.83194,-3.182 -8.95665,-5.18543 -12.43328,-6.62912 -3.47664,-1.44368 -6.30501,-2.32755 -8.63259,-2.75475 -2.32758,-0.42721 -4.15423,-0.39775 -5.61265,-0.0295 -1.45842,0.36829 -2.54852,1.07538 -2.99046,2.10659 -0.44195,1.03121 -0.23571,2.38648 1.41424,4.87612 1.64995,2.48964 4.74348,6.11349 7.77817,9.8553 3.0347,3.74181 6.01038,7.60136 9.4281,13.06677 3.41772,5.46542 7.27727,12.53635 10.47401,18.78251 3.19674,6.24617 5.73048,11.66721 8.20538,17.55983 2.4749,5.89262 4.8908,12.25645 6.92375,17.67765 2.03295,5.4212 3.68283,9.89945 5.33274,14.37779 z"
             id="path31"
             transform="matrix(1.1440062,0.12587908,-0.12587908,1.1440062,561.05025,-782.64255)" /><path
             style="fill:#d1dbe4;fill-opacity:1;stroke:#4d4d4d;stroke-width:8.43357;stroke-linecap:round;stroke-linejoin:round;stroke-miterlimit:4.1;stroke-dasharray:none;stroke-opacity:1"
             d="m -194.27758,967.14528 c -0.2357,-7.04161 -0.47141,-14.08321 -2.35706,-22.4802 -1.88565,-8.39699 -5.42112,-18.14898 -10.22361,-27.51824 -4.8025,-9.36925 -10.87171,-18.35522 -16.67593,-25.02858 -5.80422,-6.67337 -11.34312,-11.03377 -16.17505,-14.21577 -4.83194,-3.182 -8.95665,-5.18543 -12.43328,-6.62912 -3.47664,-1.44368 -6.30501,-2.32755 -8.63259,-2.75475 -2.32758,-0.42721 -4.15423,-0.39775 -5.61265,-0.0295 -1.45842,0.36829 -2.54852,1.07538 -2.99046,2.10659 -0.44195,1.03121 -0.23571,2.38648 1.41424,4.87612 1.64995,2.48964 4.74348,6.11349 7.77817,9.8553 3.0347,3.74181 6.01038,7.60136 9.4281,13.06677 3.41772,5.46542 7.27727,12.53635 10.47401,18.78251 3.19674,6.24617 5.73048,11.66721 8.20538,17.55983 2.4749,5.89262 4.8908,12.25645 6.92375,17.67765 2.03295,5.4212 3.68283,9.89945 5.33274,14.37779 z"
             id="path15"
             transform="matrix(1.0953231,0.12594479,-0.1205223,1.1446034,548.02421,-789.08471)" /><path
             style="display:none;fill:#bab4bd;fill-opacity:1;stroke:none;stroke-width:0.985824;stroke-linecap:round;stroke-linejoin:round;stroke-miterlimit:4.1;stroke-dasharray:none"
             d="m 196.32244,290.2184 c -1.35749,-6.81173 -2.71496,-13.62343 -2.79362,-22.10718 -0.0787,-8.48375 1.12147,-18.6391 3.6238,-28.71207 2.50233,-10.07296 6.3067,-20.06294 10.37682,-27.77361 4.07016,-7.71069 8.40584,-13.14163 12.32798,-17.28256 3.92218,-4.14089 7.43057,-6.99152 10.44284,-9.15912 3.01228,-2.16761 5.52822,-3.6521 7.6662,-4.58562 2.13799,-0.93355 3.89789,-1.3161 5.38053,-1.2907 1.48266,0.0255 2.68798,0.45891 3.3441,1.34937 0.65613,0.89037 0.76297,2.23759 -0.26075,4.99828 -1.02373,2.76071 -3.17796,6.93474 -5.24915,11.20875 -2.07122,4.27399 -4.05931,8.64775 -6.11051,14.66226 -2.05119,6.01452 -4.16539,13.66942 -5.82887,20.38362 -1.6635,6.71419 -2.87621,12.4873 -3.92637,18.69981 -1.05016,6.21251 -1.93774,12.86403 -2.66975,18.52468 -0.73199,5.6606 -1.3084,10.33003 -1.88482,14.99954 z"
             id="path24" /><path
             style="fill:#d1dbe4;fill-opacity:1;stroke:#4d4d4d;stroke-width:9.5;stroke-linecap:round;stroke-linejoin:round;stroke-miterlimit:4.1;stroke-dasharray:none;stroke-opacity:1"
             d="m 193.74617,299.60189 c -1.80976,-7.43848 -3.31299,-9.97262 -3.96384,-19.35808 -0.65085,-9.38546 -0.14279,-20.71744 1.66584,-32.05606 1.80865,-11.33862 4.91775,-22.68319 8.44499,-31.52457 3.52726,-8.8414 7.47246,-15.17912 11.09348,-20.05774 3.62104,-4.87858 6.91768,-8.29778 9.76703,-10.92359 2.84936,-2.62583 5.25122,-4.45816 7.3144,-5.6522 2.0632,-1.19404 3.78756,-1.74974 5.26374,-1.83302 1.4762,-0.0832 2.70415,0.30604 3.41674,1.24249 0.7126,0.93632 0.90979,2.41964 0.0781,5.5526 -0.83174,3.13298 -2.69235,7.91541 -4.46364,12.80228 -1.77133,4.88687 -3.45323,9.8779 -5.08716,16.68999 -1.63392,6.81208 -3.21978,15.44478 -4.4209,23.00226 -1.20115,7.55749 -2.01751,14.03935 -2.64255,20.9954 -0.62505,6.95604 -1.05878,14.38586 -1.40468,20.70709 -0.34589,6.32119 -0.60395,11.53348 -0.862,16.74587 z"
             id="path21" /></g><g
           id="g42"
           transform="matrix(0.88029446,-0.28933387,0.28933387,0.88029446,86.27336,-462.50208)"
           style="display:inline;opacity:1"><path
             id="path11-5"
             style="display:inline;opacity:1;fill:#fcfcfc;fill-opacity:1;stroke-linecap:round;stroke-linejoin:round;stroke-miterlimit:4.1"
             d="m 199.04161,747.09473 c -2.62353,0.95708 -5.70337,2.6729 -9.06723,4.54523 -4.79658,2.66981 -11.20723,7.72544 -16.96657,12.8445 -5.75929,5.11905 -10.86496,10.30075 -14.39434,15.35032 -3.52936,5.04956 -5.46987,9.94972 -6.59382,13.90666 -1.12397,3.9569 -1.43611,6.97814 -1.28464,9.20902 0.15149,2.23086 0.77254,3.66542 1.37889,5.06038 0.0245,0.0566 0.0724,0.10175 0.13104,0.12089 1.44598,0.47214 2.9322,0.95398 5.1674,0.89439 2.2352,-0.0596 5.21418,-0.65472 9.04749,-2.14675 3.8333,-1.49204 8.52991,-3.88606 13.22421,-7.87585 4.69425,-3.98975 9.37367,-9.56097 13.92689,-15.77733 0.5574,-0.76098 1.10477,-1.53919 1.65268,-2.31505 -0.002,0.0134 -0.004,0.0274 -0.006,0.041 -1.10624,6.97672 -2.08058,15.88103 -1.71075,22.95189 0.36983,7.07085 2.08932,12.28538 3.74559,16.15245 1.65626,3.86707 3.25591,6.40786 4.86417,8.17806 1.60827,1.77024 3.21757,2.76008 4.80068,3.7348 0.0486,0.0295 0.10688,0.0383 0.16215,0.0251 1.80903,-0.42842 3.64655,-0.86229 5.72929,-2.03812 2.08271,-1.17581 4.40305,-3.08606 7.18961,-6.23765 2.78657,-3.15156 6.05564,-7.56252 8.62664,-14.15979 2.57097,-6.59726 4.44086,-15.35766 5.58085,-22.32893 0.33623,-2.05613 0.57388,-3.89289 0.77642,-5.66917 0.98605,2.38877 2.05007,4.81377 3.15363,7.17288 3.26497,6.97958 6.77604,13.35081 10.61004,18.17313 3.834,4.82234 7.97902,8.0779 11.4514,10.28316 3.47239,2.20525 6.2834,3.36732 8.46494,3.85806 2.18157,0.49077 3.73067,0.30241 5.24042,0.11888 0.0613,-0.007 0.11662,-0.0397 0.15221,-0.0901 0.86462,-1.25125 1.75252,-2.5355 2.33261,-4.69501 0.58009,-2.15949 0.85634,-5.18833 0.5189,-9.28792 -0.33744,-4.0996 -1.29272,-9.28512 -3.77885,-14.92193 -2.48614,-5.63684 -6.49394,-11.7079 -11.15445,-17.84416 -4.66053,-6.13629 -9.97347,-12.33542 -14.16316,-15.8825 -3.23939,-2.74255 -5.18086,-5.14346 -7.28735,-6.49269 -0.45618,0.7357 -1.04841,1.2829 -1.92496,1.79984 -1.56594,0.92348 -4.13591,1.43491 -6.29066,1.50383 -2.31871,0.0742 -4.22398,0.0326 -6.54115,-0.0798 -1.93266,-0.0937 -4.65264,-0.2081 -6.57103,-0.46058 -2.34207,-0.30824 -4.32512,-0.73282 -6.63277,-1.23783 -2.25559,-0.49363 -4.00342,-0.90443 -6.67462,-1.77683 -1.89373,-0.61847 -4.37868,-1.58317 -5.66069,-2.87214 -0.56994,-0.57306 -0.95841,-1.12045 -1.22532,-1.73445 z"
             transform="rotate(0.0882554,55071.29,-121235.68)" /><path
             style="display:inline;opacity:1;fill:#a3b7ca;fill-opacity:1;stroke-width:1.43482;stroke-linecap:round;stroke-linejoin:round;stroke-miterlimit:4.1"
             d="m 33.13363,669.58872 -12.475721,-2.21187 c -0.929471,1.06089 -1.858924,2.12173 -3.007463,4.12847 -1.148525,2.00675 -2.516044,4.95923 -3.300648,8.14077 -0.784603,3.18155 -0.986245,6.59199 -0.821723,9.66222 0.164505,3.07023 0.695166,5.80001 1.859581,8.00763 1.1644,2.20765 2.962489,3.89299 4.66601,4.96873 1.70351,1.07574 3.312381,1.54182 4.921271,2.0079 z m 0,0 12.489326,2.15396 c 0.37694,1.28935 0.753882,2.57868 0.905414,4.81277 0.151535,2.23409 0.07766,5.4128 -0.636568,8.60663 -0.714227,3.19388 -2.068742,6.40273 -3.606847,9.17518 -1.538091,2.77246 -3.259683,5.10842 -5.329134,6.7505 -2.069465,1.64211 -4.48669,2.59031 -6.541487,3.00878 -2.054799,0.41849 -3.74707,0.30713 -5.439397,0.19603 z"
             id="path15-3" /><path
             id="path2"
             style="display:inline;opacity:1;fill:none;stroke:#4d4d4d;stroke-width:7.05572;stroke-linecap:round;stroke-linejoin:round;stroke-miterlimit:4.1;stroke-dasharray:none;stroke-opacity:1"
             d="m 405.7196,69.653112 c -2.31882,0.0706 -4.22422,0.0259 -6.54122,-0.0901 -1.93251,-0.0967 -4.65231,-0.21526 -6.57031,-0.4707 -2.34159,-0.31185 -4.32399,-0.73948 -6.63086,-1.24804 -2.25482,-0.49711 -4.00202,-0.9106 -6.67187,-1.78711 l -10.70878,29.19347 c -1.73903,11.529788 -2.01683,17.776128 -1.75217,22.990208 0.35894,7.07142 2.0704,12.28859 3.72071,16.1582 1.6503,3.86962 3.24603,6.41287 4.85156,8.18555 1.60555,1.77271 3.21332,2.76503 4.79493,3.74219 0.0486,0.0296 0.10682,0.0385 0.16211,0.0254 1.80968,-0.42564 3.64787,-0.85667 5.73242,-2.0293 2.08452,-1.1726 4.4078,-3.07927 7.19921,-6.22656 2.79142,-3.14727 6.06728,-7.55319 8.64844,-14.14649 2.58113,-6.59329 4.46451,-15.3508 5.61524,-22.32031 0.33939,-2.055608 0.57987,-3.891998 0.78515,-5.667958 z m 2.63456,26.30838 c 0.98237,2.39028 2.04265,4.816918 3.14258,7.177728 3.25421,6.9846 6.75546,13.36123 10.58203,18.18945 3.82657,4.82824 7.96657,8.09018 11.43555,10.30078 3.46899,2.2106 6.2782,3.377 8.45898,3.8711 2.18082,0.49413 3.73021,0.30816 5.24024,0.12695 0.0613,-0.007 0.11668,-0.0395 0.15234,-0.0899 0.86655,-1.24992 1.75643,-2.5328 2.33984,-4.69142 0.58342,-2.15859 0.86433,-5.187 0.53321,-9.28711 -0.33113,-4.10011 -1.27842,-9.2871 -3.75586,-14.92773 -2.47746,-5.64066 -6.4759,-11.717888 -11.12695,-17.861318 -4.65107,-6.14346 -9.95446,-12.35077 -14.13868,-15.9043 -3.23516,-2.74753 -5.17293,-5.15143 -7.27734,-6.5039 -0.45731,0.73499 -1.05039,1.28128 -1.92773,1.79687 -1.56736,0.92107 -4.13812,1.42854 -6.29297,1.49414 z m -29.04882,-29.90435 c -1.89278,-0.62139 -4.37624,-1.58992 -5.65626,-2.88086 -0.56906,-0.57394 -0.95668,-1.12192 -1.22265,-1.73634 l 2.1e-4,1.2e-4 c -2.625,0.95303 -5.70748,2.66411 -9.07422,4.53125 -4.80069,2.66242 -11.21912,7.70817 -16.98633,12.81835 -5.76717,5.11018 -10.88082,10.28401 -14.41797,15.32813 -3.53714,5.04412 -5.48519,9.941288 -6.61523,13.896488 -1.13007,3.95516 -1.44686,6.97592 -1.29883,9.20703 0.14805,2.23109 0.76689,3.66661 1.3711,5.0625 0.0244,0.0566 0.0722,0.10186 0.13085,0.12109 1.44525,0.47437 2.93073,0.9585 5.16601,0.90235 2.23529,-0.0562 5.21519,-0.64669 9.05079,-2.13281 3.83559,-1.48614 8.53589,-3.87292 13.23633,-7.85547 4.70039,-3.98252 9.38838,-9.54652 13.95117,-15.755858 0.55857,-0.76012 1.10714,-1.53749 1.65625,-2.3125 z"
             transform="translate(-361.2157,600.98767)" /><path
             id="path35-6"
             style="fill:#4d4d4d;fill-opacity:1;stroke-linecap:round;stroke-linejoin:round;stroke-miterlimit:4.1"
             d="m 32.86689,622.41411 c -0.907908,0.10189 -1.824706,0.30798 -2.756816,0.67854 -2.485622,0.98818 -5.076275,3.15236 -7.322633,5.59251 -2.246349,2.44014 -4.148189,5.15599 -6.040457,9.34497 -1.892267,4.18898 -3.775615,9.84958 -4.889692,14.2398 -1.114087,4.39021 -1.458273,7.50915 -1.4301,9.63828 0.02817,2.12913 0.428716,3.26902 1.708729,4.55998 1.280022,1.29095 3.764357,2.25893 5.657128,2.88032 2.669857,0.87651 4.416975,1.29104 6.6718,1.78814 2.306874,0.50856 4.28858,0.93585 6.630175,1.2477 1.917998,0.25543 4.63781,0.37392 6.570324,0.47061 2.317001,0.11593 4.222189,0.16062 6.541012,0.09 2.154862,-0.0656 4.72531,-0.5729 6.292667,-1.49397 1.567365,-0.92108 2.245525,-1.91893 2.816719,-3.97022 0.571206,-2.05127 1.035328,-5.15464 1.079869,-9.68378 0.04453,-4.52914 -0.330784,-10.48387 -1.090009,-15.01728 -0.759229,-4.53341 -1.903076,-7.64562 -3.451452,-10.5787 -1.548376,-2.93307 -3.163996,-5.47575 -5.651667,-7.27693 -1.962805,-1.42116 -4.463683,-2.00386 -6.846594,-2.44436 -1.487595,-0.27498 -2.993645,-0.20411 -4.489003,-0.0656 z" /></g></g><g
         id="layer3"
         style="display:inline;opacity:1"><g
           id="g4"
           style="display:inline;opacity:1;fill:none;stroke:#4d4d4d;stroke-opacity:1"
           transform="matrix(1.0896671,0,0,1.0896671,-29.732538,-5.3083098)"><path
             id="path3"
             style="display:inline;opacity:1;fill:#ffffff;stroke:none;stroke-width:9.5;stroke-linecap:round;stroke-linejoin:round;stroke-miterlimit:4.1;stroke-dasharray:none;stroke-opacity:1"
             d="m 278.74219,288.44727 c 1.38428,-8.34272 -7.72664,-16.0918 -21.05469,-16.0918 -6.34859,0 -11.48816,1.70446 -15.11914,4.24805 m 42.5332,15.11914 h -26.66211" /><path
             style="display:inline;opacity:1;fill:#a2b9c9;fill-opacity:1;stroke:#bab4bd;stroke-width:9.5;stroke-linecap:round;stroke-linejoin:round;stroke-miterlimit:4.1;stroke-dasharray:none;stroke-opacity:1"
             d="m 252.87499,304.30659 c 6.875,0 13.75,0 20.625,0"
             id="path34"
             transform="translate(19.998291,-12.58393)" /><path
             id="path37"
             style="display:inline;fill:none;stroke:#4d4d4d;stroke-width:9.5;stroke-linecap:round;stroke-linejoin:round;stroke-miterlimit:4.1;stroke-dasharray:none;stroke-opacity:1"
             d="m 278.74219,288.44727 c 1.38428,-8.34272 -7.72664,-16.0918 -21.05469,-16.0918 -6.34859,0 -11.48816,1.70446 -15.11914,4.24805 m 42.5332,15.11914 h -26.66211" /></g><g
           id="g3"
           transform="matrix(1.0896671,0,0,1.0896671,-25.373869,-11.846312)"><path
             id="path4"
             style="display:inline;opacity:1;fill:#ffffff;stroke:none;stroke-width:8.71147;stroke-linecap:round;stroke-linejoin:round;stroke-miterlimit:4.1;stroke-dasharray:none;stroke-opacity:1"
             d="m 205.06961,296.86405 c 1.36637,-10.02769 -7.62592,-19.34177 -20.78152,-19.34177 -14.14089,0 -22.21295,10.43394 -20.78152,19.34338 m -6.27648,3.93472 h 54.11599 z"
             transform="translate(-4,4)" /><path
             style="display:inline;opacity:1;fill:#a2b9c9;fill-opacity:1;stroke:#bab4bd;stroke-width:8.8;stroke-linecap:round;stroke-linejoin:round;stroke-miterlimit:4.1;stroke-dasharray:none;stroke-opacity:1"
             d="m 252.87499,304.30659 c 6.875,0 13.75,0 20.625,0"
             id="path36"
             transform="translate(-105.37363,0.4495247)" /><path
             style="display:inline;opacity:1;fill:#a2b9c9;fill-opacity:1;stroke:#bab4bd;stroke-width:9.5;stroke-linecap:square;stroke-linejoin:round;stroke-miterlimit:4.1;stroke-dasharray:none;stroke-opacity:1"
             d="m 252.87499,304.30659 c 6.875,0 13.75,0 20.625,0"
             id="path41"
             transform="matrix(1.2287787,0,0,1,-143.1111,-2.9999998)" /><path
             id="path38"
             style="display:inline;opacity:1;fill:none;stroke:#4d4d4d;stroke-width:8.71147;stroke-linecap:round;stroke-linejoin:round;stroke-miterlimit:4.1;stroke-dasharray:none;stroke-opacity:1"
             d="m 205.06961,296.86405 c 1.36637,-10.02769 -7.62592,-19.34177 -20.78152,-19.34177 -14.14089,0 -22.21295,10.43394 -20.78152,19.34338 m -6.27648,3.93472 h 54.11599 z"
             transform="translate(-4,4)" /></g><g
           id="g2"
           transform="matrix(1.0896671,0,0,1.0896671,-27.553203,-11.846312)"><path
             id="path6"
             style="display:inline;opacity:1;fill:#ffffff;stroke:none;stroke-width:9.5;stroke-linecap:round;stroke-linejoin:round;stroke-miterlimit:4.1;stroke-dasharray:none;stroke-opacity:1"
             d="m 254.99219,299.55659 c 1.34657,-12.10048 -7.51545,-23.33984 -20.48047,-23.33984 -13.93604,0 -21.89116,12.59071 -20.48047,23.34179 m -6.18555,4.74805 h 53.33203 z"
             transform="translate(-4,4)" /><path
             style="display:inline;opacity:1;fill:#a2b9c9;fill-opacity:1;stroke:#bab4bd;stroke-width:9.5;stroke-linecap:round;stroke-linejoin:round;stroke-miterlimit:4.1;stroke-dasharray:none;stroke-opacity:1"
             d="m 252.87499,304.30659 c 2.89752,0 5.79505,0 8.69257,0"
             id="path22"
             transform="translate(4,4)" /><path
             style="display:inline;opacity:1;fill:#a2b9c9;fill-opacity:1;stroke:#bab4bd;stroke-width:9.5;stroke-linecap:square;stroke-linejoin:round;stroke-miterlimit:4.1;stroke-dasharray:none;stroke-opacity:1"
             d="m 252.87499,304.30659 c 6.875,0 13.75,0 20.625,0"
             id="path40"
             transform="matrix(1.1012402,0,0,1,-59.474767,-2.9999998)" /><path
             id="path39"
             style="display:inline;opacity:1;fill:none;stroke:#4d4d4d;stroke-width:9.5;stroke-linecap:round;stroke-linejoin:round;stroke-miterlimit:4.1;stroke-dasharray:none;stroke-opacity:1"
             d="m 254.99219,299.55659 c 1.34657,-12.10048 -7.51545,-23.33984 -20.48047,-23.33984 -13.93604,0 -21.89116,12.59071 -20.48047,23.34179 m -6.18555,4.74805 h 53.33203 z"
             transform="translate(-4,4)" /></g></g><g
         id="layer8"
         style="display:inline"><circle
           style="display:inline;opacity:1;fill:#bec8d1;fill-opacity:1;stroke:none;stroke-width:9.18752;stroke-linecap:round;stroke-linejoin:round;stroke-miterlimit:4.1;stroke-dasharray:none;stroke-opacity:1"
           id="path51"
           cx="134.45033"
           cy="114.04967"
           r="17.390625" /><circle
           style="display:inline;opacity:1;fill:#bec8d1;fill-opacity:1;stroke:none;stroke-width:9.08168;stroke-linecap:round;stroke-linejoin:round;stroke-miterlimit:4.1;stroke-dasharray:none;stroke-opacity:1"
           id="circle51"
           cx="391.25"
           cy="89.25"
           r="17.190298" /><circle
           style="display:inline;opacity:1;fill:#bec8d1;fill-opacity:1;stroke:none;stroke-width:10.1383;stroke-linecap:round;stroke-linejoin:round;stroke-miterlimit:4.1;stroke-dasharray:none;stroke-opacity:1"
           id="circle52"
           cx="436.75"
           cy="144.75"
           r="19.190298" /></g></g></g><g
     id="layer9"
     style="display:inline"><g
       id="g46"
       transform="translate(26.126005)"
       style="display:none"><path
         id="path45"
         style="font-weight:bold;font-size:96px;line-height:0;font-family:Roboto;-inkscape-font-specification:'Roboto Bold';white-space:pre;fill:#4d4d4d;stroke-width:7.57982;stroke-linejoin:round;stroke-miterlimit:4.1"
         d="m 1308.6841,362.78631 h -34.3463 V 234.63926 h 34.3463 z m -36.3598,-161.30895 q 0,-7.69829 5.0929,-12.67257 5.2111,-4.97428 14.0938,-4.97428 8.7641,0 13.9752,4.97428 5.2112,4.97428 5.2112,12.67257 0,7.81675 -5.3295,12.79103 -5.2111,4.97429 -13.8569,4.97429 -8.6459,0 -13.9756,-4.97429 -5.2111,-4.97428 -5.2111,-12.79103 z" /><path
         style="font-weight:bold;font-size:96px;line-height:0;font-family:Roboto;-inkscape-font-specification:'Roboto Bold';white-space:pre;fill:#4d4d4d;stroke-width:7.57982;stroke-linejoin:round;stroke-miterlimit:4.1"
         d="m 1087.8797,234.63926 1.0659,14.33068 q 13.6201,-16.69938 36.8334,-16.69938 24.7531,0 33.9912,19.54184 13.5014,-19.54184 38.4912,-19.54184 20.8447,0 31.0302,12.19885 10.1854,12.08039 10.1854,36.47808 v 81.83882 h -34.3461 v -81.72039 q 0,-10.89605 -4.2637,-15.87034 -4.2638,-5.09271 -15.0413,-5.09271 -15.3966,0 -21.3184,14.68598 l 0.1184,87.99746 h -34.2278 v -81.60196 q 0,-11.13291 -4.3821,-16.1072 -4.3821,-4.97428 -14.923,-4.97428 -14.5674,0 -21.0813,12.0804 v 90.60304 h -34.2279 V 234.63926 Z"
         id="path44" /><path
         style="font-weight:bold;font-size:96px;line-height:0;font-family:Roboto;-inkscape-font-specification:'Roboto Bold';white-space:pre;fill:#4d4d4d;stroke-width:7.57982;stroke-linejoin:round;stroke-miterlimit:4.1"
         d="m 985.77468,349.75843 q -12.6728,15.39659 -35.0568,15.39659 -20.608,0 -31.504,-11.84354 -10.7775,-11.84354 -11.0146,-34.70155 v -83.97067 h 34.228 v 82.78631 q 0,20.01558 18.2391,20.01558 17.4099,0 23.9238,-12.08041 v -90.72148 h 34.34642 v 128.14705 h -32.21442 z"
         id="path43" /><path
         style="font-weight:bold;font-size:96px;line-height:0;font-family:Roboto;-inkscape-font-specification:'Roboto Bold';white-space:pre;fill:#4d4d4d;stroke-width:7.57982;stroke-linejoin:round;stroke-miterlimit:4.1"
         d="M 814.92324,362.78631 V 259.74756 h -19.0681 v -25.1083 h 19.0681 v -10.89604 q 0,-21.55524 12.31727,-33.39878 12.43571,-11.96196 34.70156,-11.96196 7.10611,0 17.40995,2.3687 l -0.3553,26.52952 q -4.26364,-1.06592 -10.42229,-1.06592 -19.30494,0 -19.30494,18.12061 v 10.30387 h 25.46359 v 25.1083 h -25.46359 v 103.03875 z"
         id="path42" /><path
         id="path18"
         style="font-weight:bold;font-size:96px;line-height:0;font-family:Roboto;-inkscape-font-specification:'Roboto Bold';white-space:pre;fill:#4d4d4d;stroke-width:7.57982;stroke-linejoin:round;stroke-miterlimit:4.1"
         d="M 760.99447,362.78631 H 726.64822 V 234.63926 h 34.34625 z M 724.63484,201.47736 q 0,-7.69829 5.0927,-12.67257 5.21115,-4.97428 14.09383,-4.97428 8.7642,0 13.97535,4.97428 5.21116,4.97428 5.21116,12.67257 0,7.81675 -5.32959,12.79103 -5.21116,4.97429 -13.85692,4.97429 -8.6458,0 -13.97538,-4.97429 -5.21115,-4.97428 -5.21115,-12.79103 z" /><path
         style="font-weight:bold;font-size:96px;line-height:0;font-family:Roboto;-inkscape-font-specification:'Roboto Bold';white-space:pre;fill:#4d4d4d;stroke-width:7.57982;stroke-linejoin:round;stroke-miterlimit:4.1"
         d="m 615.27835,248.61464 q 13.62005,-16.34408 34.22781,-16.34408 41.68924,0 42.28142,48.44005 v 82.0757 H 657.55976 V 281.6581 q 0,-11.01448 -4.73741,-16.22564 -4.73742,-5.32959 -15.75189,-5.32959 -15.04131,0 -21.79211,11.60667 v 91.07677 H 581.05053 V 180.86962 h 34.22782 z"
         id="text25" /></g><path
       id="text1"
       style="font-style:normal;font-variant:normal;font-weight:bold;font-stretch:normal;font-size:236.224px;line-height:0;font-family:Roboto;-inkscape-font-specification:'Roboto Bold';letter-spacing:2.5px;display:inline;fill:#606060;fill-opacity:1;stroke-width:7.382;stroke-linejoin:round;stroke-miterlimit:4.1"
       d="m 871.2207,180.22656 c -13.95804,0 -24.92064,3.81742 -32.74804,11.48828 -7.83024,7.67363 -11.72461,18.56308 -11.72461,32.52344 v 10.77734 h -18.39063 a 0.64352796,0.64352796 0 0 0 -0.64258,0.64258 v 20.76172 a 0.64352796,0.64352796 0 0 0 0.64258,0.64258 h 18.39063 v 103.39648 a 0.64352796,0.64352796 0 0 0 0.64257,0.64258 h 28.02735 a 0.64352796,0.64352796 0 0 0 0.64258,-0.64258 V 257.0625 h 24.73437 a 0.64352796,0.64352796 0 0 0 0.64258,-0.64258 V 235.6582 a 0.64352796,0.64352796 0 0 0 -0.64258,-0.64258 h -24.73437 v -10.43164 c 0,-6.77791 1.64029,-11.74976 4.83593,-15.03711 3.19565,-3.28734 8.0122,-4.96679 14.5918,-4.96679 4.04299,0 7.57722,0.30763 10.59961,0.91211 a 0.64352796,0.64352796 0 0 0 0.76953,-0.61133 l 0.69141,-21.91602 a 0.64352796,0.64352796 0 0 0 -0.48633,-0.64453 c -5.57999,-1.39499 -10.86014,-2.09375 -15.8418,-2.09375 z m -250.5664,2.42188 a 0.64352796,0.64352796 0 0 0 -0.64258,0.64258 v 177.16796 a 0.64352796,0.64352796 0 0 0 0.64258,0.64258 h 28.02734 a 0.64352796,0.64352796 0 0 0 0.64258,-0.64258 v -88.97461 c 5.44641,-9.74409 13.5169,-14.5371 24.50195,-14.5371 7.12092,0 12.38869,1.77106 15.92969,5.23828 a 0.64352796,0.64352796 0 0 0 0.01,0.01 c 3.57799,3.35894 5.44922,9.23545 5.44922,17.75391 v 80.50976 a 0.64352796,0.64352796 0 0 0 0.64258,0.64258 h 28.0293 a 0.64352796,0.64352796 0 0 0 0.64258,-0.64258 v -81.54687 a 0.64352796,0.64352796 0 0 0 0,-0.008 c -0.19343,-15.28084 -3.68503,-26.8395 -10.57227,-34.58985 -6.88724,-7.75035 -17.13124,-11.60547 -30.55664,-11.60547 -13.60009,0 -24.99257,5.04078 -34.07617,14.94922 v -64.36718 a 0.64352796,0.64352796 0 0 0 -0.64258,-0.64258 z m 149.9082,4.96093 c -5.19535,0 -9.31937,1.47501 -12.22461,4.46094 a 0.64352796,0.64352796 0 0 0 -0.006,0.008 c -2.8027,2.96286 -4.21289,6.72776 -4.21289,11.16797 0,4.36577 1.41217,8.09199 4.21289,11.05274 a 0.64352796,0.64352796 0 0 0 0.0117,0.0137 c 2.9072,2.9072 7.02664,4.33984 12.21875,4.33984 5.19211,0 9.31341,-1.43253 12.2207,-4.33984 a 0.64352796,0.64352796 0 0 0 0.006,-0.006 c 2.87936,-2.95934 4.33399,-6.69089 4.33399,-11.06055 0,-4.44403 -1.45261,-8.21436 -4.33399,-11.17578 -2.90533,-2.98604 -7.03121,-4.46094 -12.22656,-4.46094 z m 490.8691,0 c -5.1953,0 -9.3211,1.47491 -12.2265,4.46094 a 0.64352796,0.64352796 0 0 0 -0.01,0.008 c -2.8026,2.96286 -4.2129,6.72775 -4.2129,11.16797 0,4.36577 1.4123,8.09199 4.2129,11.05274 a 0.64352796,0.64352796 0 0 0 0.012,0.0137 c 2.9074,2.9073 7.0287,4.33984 12.2207,4.33984 5.1922,0 9.3116,-1.43264 12.2188,-4.33984 a 0.64352796,0.64352796 0 0 0 0.01,-0.006 c 2.8794,-2.95934 4.3339,-6.69089 4.3339,-11.06055 0,-4.44403 -1.4525,-8.21436 -4.3339,-11.17578 -2.9052,-2.98593 -7.0292,-4.46094 -12.2247,-4.46094 z m -160.7519,45.09961 c -14.7962,0 -26.6418,4.86757 -35.4356,14.47657 l -0.7168,-11.56641 a 0.64352796,0.64352796 0 0 0 -0.6425,-0.60352 h -26.4141 a 0.64352796,0.64352796 0 0 0 -0.6426,0.64258 v 124.80078 a 0.64352796,0.64352796 0 0 0 0.6426,0.64258 H 1065.5 a 0.64352796,0.64352796 0 0 0 0.6426,-0.64258 v -90.2539 c 4.6026,-8.88002 12.2327,-13.25781 23.2324,-13.25781 7.1973,0 12.5314,1.7985 16.1309,5.32421 3.5994,3.52572 5.5292,8.84506 5.7187,16.08204 v 82.10546 a 0.64352796,0.64352796 0 0 0 0.6426,0.64258 h 28.0293 a 0.64352796,0.64352796 0 0 0 0.6426,-0.64258 l -0.1153,-85.47461 c 1.588,-5.39872 4.3121,-9.71385 8.1934,-12.99804 a 0.64352796,0.64352796 0 0 0 0,-0.002 c 3.9491,-3.35298 9.0053,-5.0371 15.2715,-5.0371 7.898,0 13.4256,1.82337 16.7168,5.33398 3.3032,3.52345 5.0156,9.14996 5.0156,16.97656 v 81.20117 a 0.64352796,0.64352796 0 0 0 0.6426,0.64258 h 28.0293 a 0.64352796,0.64352796 0 0 0 0.6425,-0.64258 v -82.00781 a 0.64352796,0.64352796 0 0 0 0,-0.006 c -0.1547,-14.93548 -3.6397,-26.33359 -10.541,-34.09961 l -0,-0.004 c -6.8344,-7.77499 -17.2811,-11.63282 -31.1621,-11.63282 -16.2701,0 -29.0623,6.27131 -38.2071,18.64649 -6.3556,-12.36595 -17.8918,-18.64649 -34.3437,-18.64649 z m -344.18947,2.30664 a 0.64352796,0.64352796 0 0 0 -0.64257,0.64258 v 124.80078 a 0.64352796,0.64352796 0 0 0 0.64257,0.64258 h 28.0293 a 0.64352796,0.64352796 0 0 0 0.64258,-0.64258 V 235.6582 a 0.64352796,0.64352796 0 0 0 -0.64258,-0.64258 z m 146.64258,0 a 0.64352796,0.64352796 0 0 0 -0.64258,0.64258 v 80.85547 c 0,15.09367 3.48605,26.72509 10.53907,34.79688 a 0.64352796,0.64352796 0 0 0 0.002,0.002 c 7.13379,8.07451 17.6201,12.09766 31.2793,12.09766 14.67819,0 26.21236,-4.58882 34.50586,-13.66016 l 0.60937,10.74609 a 0.64352796,0.64352796 0 0 0 0.64258,0.60547 h 26.41214 a 0.64352796,0.64352796 0 0 0 0.6425,-0.64258 V 235.6582 a 0.64352796,0.64352796 0 0 0 -0.6425,-0.64258 h -28.02738 a 0.64352796,0.64352796 0 0 0 -0.64257,0.64258 v 89.44922 c -4.67706,9.4695 -13.5249,14.17774 -26.92578,14.17774 -6.44542,0 -11.14453,-1.91135 -14.29688,-5.70899 -3.15235,-3.79764 -4.7832,-9.57695 -4.7832,-17.4082 V 235.6582 a 0.64352796,0.64352796 0 0 0 -0.64258,-0.64258 z m 344.22659,0 a 0.64352796,0.64352796 0 0 0 -0.6426,0.64258 v 124.80078 a 0.64352796,0.64352796 0 0 0 0.6426,0.64258 h 28.0273 a 0.64352796,0.64352796 0 0 0 0.6426,-0.64258 V 235.6582 a 0.64352796,0.64352796 0 0 0 -0.6426,-0.64258 z" /></g></svg>
